# xmcd CD database file
#
# Track frame offsets:
#	150
#	13783
#	30070
#	50818
#	67286
#	85529
#	98936
#	112831
#	129598
#	143332
#	161206
#	173865
#	190801
#	204690
#	224837
#	238201
#	253895
#	272537
#	291557
#	308271
#
# Disc length: 4345 seconds
#
# Revision: 1
# Processed by: cddbd v1.5.2PL0 Copyright (c) Steve Scherf et al.
# Submitted via: CDex 1.51
#
DISCID=2910f714
DTITLE=NN - Yu hitovi 2
DYEAR=1900
DGENRE=Yu Dance
TTITLE0=Romana - Venera
TTITLE1=Bajaga - Lepa janja ribareva kci
TTITLE2=Valentino - Sve su se moje care udale
TTITLE3=Xenia - Xenia je tu
TTITLE4=Dobar Los Zao - Sudbina
TTITLE5=Colonia - Samo tvoja
TTITLE6=Zeljko Samardzic - Kosa necesljana
TTITLE7=O.K. Band - Tri flase
TTITLE8=Natasa Bekvalac - Zar s´njom
TTITLE9=Magazin - Bol
TTITLE10=Goca Trzan - Sve ce na svoje doci
TTITLE11=Vlado Kalember - Otkad si dosla
TTITLE12=Ivan - Iscepana kosulja
TTITLE13=Romana and B3 - Ljubomora
TTITLE14=Bajaga - Dali da odem ili ne
TTITLE15=Valentino - Kad se spuste zavese
TTITLE16=Xenia - Lezi
TTITLE17=Ivana banfic - Predaleko
TTITLE18=Luna - Bubice
TTITLE19=Colonia - Prvi il zadnji
EXTD=
EXTT0=
EXTT1=
EXTT2=
EXTT3=
EXTT4=
EXTT5=
EXTT6=
EXTT7=
EXTT8=
EXTT9=
EXTT10=
EXTT11=
EXTT12=
EXTT13=
EXTT14=
EXTT15=
EXTT16=
EXTT17=
EXTT18=
EXTT19=
PLAYORDER=
